With: Jeff Bridges, Garrett Hedlund and Olivia Wilde

Wanneer Sam Flynn (Garrett Hedlund) nog jong is, verdwijnt zijn vader Kevin (Jeff Bridges), een computerprogrammeur. Zo'n 20 jaar later krijgt Sam bezoek van Alan Bradley, een oud-collega van zijn vader. Alan beweert dat de vader van Sam nog leeft en vermoedt dat hij terug te vinden is in diens vroegere arcadehal. Sam hecht niet veel geloof aan dat gegeven, maar gaat toch op onderzoek uit. Wanneer hij een verborgen kamer vindt, wordt hij opgezogen in een virtual realitywereld. Samen met Kevins vertrouweling Quorra (Olivia Wilde) komen vader en zoon in een gevecht terecht van leven en dood. Ze moeten zien te ontsnappen uit een cyberwereld die niet alleen heel geavanceerd blijkt te zijn, maar ook heel erg gevaarlijk.

The son of a virtual world designer goes looking for his father and ends up inside the digital world that his father designed. He meets his father's creation turned bad and a unique ally who was born inside the digital domain of The Grid. 

General:

Complete name                    : Tron  Legacy\Tron  Legacy.avi
Format                           : AVI
Format/Info                      : Audio Video Interleave
File size                        : 1.76 GiB
Duration                         : 2h 0mn
Overall bit rate                 : 2 097 Kbps

Video:

Format                           : MPEG-4 Visual
Format profile                   : Simple@L3
Format settings, BVOP            : No
Format settings, QPel            : No
Format settings, GMC             : No warppoints
Format settings, Matrix          : Default (H.263)
Codec ID                         : XVID
Codec ID/Hint                    : XviD
Duration                         : 2h 0mn
Bit rate                         : 1 702 Kbps
Width                            : 704 pixels
Height                           : 396 pixels
Display aspect ratio             : 16:9
Frame rate                       : 25.000 fps
Color space                      : YUV
Chroma subsampling               : 4:2:0
Bit depth                        : 8 bits
Scan type                        : Progressive
Bits/(Pixel*Frame)               : 0.244
Stream size                      : 1.43 GiB (81%)
Writing library                  : XviD 1.1.2 (UTC 2006-11-01)

Audio:

Format                           : AC-3
Format/Info                      : Audio Coding 3
Mode extension                   : CM (complete main)
Codec ID                         : 2000
Duration                         : 2h 0mn
Bit rate mode                    : Constant
Bit rate                         : 384 Kbps
Channel(s)                       : 6 channels
Channel positions                : Front: L C R, Side: L R, LFE
Sampling rate                    : 48.0 KHz
Bit depth                        : 16 bits
Stream size                      : 330 MiB (18%)
Alignment                        : Aligned on interleaves
Interleave, duration             : 32 ms (0.80 video frame)
Interleave, preload duration     : 384 ms
